solid Created by Gmsh
facet normal 0.946472 0.142658 -0.28955
  outer loop
    vertex 0.7 -1.714505518806294e-16 -4.898587196589413e-17
    vertex 0.6409782762793113 0.1353058676884961 -0.1262649958386982
    vertex 0.6689009640502985 0.2063286220876328 -4.898587196589413e-17
  endloop
endfacet
facet normal 0.958768 0.144511 0.244704
  outer loop
    vertex 0.6689009640502985 0.2063286220876328 -4.898587196589413e-17
    vertex 0.6498546393532719 0.1415076723883994 0.1129051994456634
    vertex 0.7 -1.714505518806294e-16 -4.898587196589413e-17
  endloop
endfacet
facet normal 0.95839 -0.144454 0.246214
  outer loop
    vertex 0.7 -1.714505518806294e-16 -4.898587196589413e-17
    vertex 0.6516121190415732 -0.1244292481150085 0.1153473597874129
    vertex 0.6689009640502986 -0.2063286220876327 -4.898587196589413e-17
  endloop
endfacet
facet normal 0.978431 -0.147475 -0.144653
  outer loop
    vertex 0.6689009640502986 -0.2063286220876327 -4.898587196589413e-17
    vertex 0.6716114826327296 -0.1012291432536033 -0.08881573700422339
    vertex 0.7 -1.714505518806294e-16 -4.898587196589413e-17
  endloop
endfacet
facet normal 0.89976 0.0517781 0.433302
  outer loop
    vertex 0.6246979603717465 -1.530068715206279e-16 0.1563662964936061
    vertex 0.6516121190415732 -0.1244292481150085 0.1153473597874129
    vertex 0.7 -1.714505518806294e-16 -4.898587196589413e-17
  endloop
endfacet
facet normal 0.900643 -0.0269027 0.433727
  outer loop
    vertex 0.7 -1.714505518806294e-16 -4.898587196589413e-17
    vertex 0.6498546393532719 0.1415076723883994 0.1129051994456634
    vertex 0.6246979603717465 -1.530068715206279e-16 0.1563662964936061
  endloop
endfacet
facet normal 0.900905 -0.0118803 -0.433853
  outer loop
    vertex 0.6246979603717469 -1.53006871520628e-16 -0.1563662964936059
    vertex 0.6409782762793113 0.1353058676884961 -0.1262649958386982
    vertex 0.7 -1.714505518806294e-16 -4.898587196589413e-17
  endloop
endfacet
facet normal 0.893676 0.126976 -0.430372
  outer loop
    vertex 0.7 -1.714505518806294e-16 -4.898587196589413e-17
    vertex 0.6716114826327296 -0.1012291432536033 -0.08881573700422339
    vertex 0.6246979603717469 -1.53006871520628e-16 -0.1563662964936059
  endloop
endfacet
facet normal 0.834411 0.401831 -0.377215
  outer loop
    vertex 0.6689009640502985 0.2063286220876328 -4.898587196589413e-17
    vertex 0.5589649273011009 0.2927252476814571 -0.1511471609977161
    vertex 0.5783671420211967 0.394324040644535 -4.898587196589413e-17
  endloop
endfacet
facet normal 0.862363 0.415292 0.28959
  outer loop
    vertex 0.5783671420211967 0.394324040644535 -4.898587196589413e-17
    vertex 0.5878221802792393 0.285149116771968 0.1284086207914508
    vertex 0.6689009640502985 0.2063286220876328 -4.898587196589413e-17
  endloop
endfacet
facet normal 0.83853 0.374276 -0.395962
  outer loop
    vertex 0.6689009640502985 0.2063286220876328 -4.898587196589413e-17
    vertex 0.6409782762793113 0.1353058676884961 -0.1262649958386982
    vertex 0.5589649273011009 0.2927252476814571 -0.1511471609977161
  endloop
endfacet
facet normal 0.875163 0.340887 0.343344
  outer loop
    vertex 0.5878221802792393 0.285149116771968 0.1284086207914508
    vertex 0.6498546393532719 0.1415076723883994 0.1129051994456634
    vertex 0.6689009640502985 0.2063286220876328 -4.898587196589413e-17
  endloop
endfacet
facet normal 0.669211 0.620937 -0.408158
  outer loop
    vertex 0.5783671420211967 0.394324040644535 -4.898587196589413e-17
    vertex 0.4416232982922464 0.4372589700333336 -0.1588859011388616
    vertex 0.436442861301114 0.5472820377276204 -4.898587196589413e-17
  endloop
endfacet
facet normal 0.68084 0.631727 0.370644
  outer loop
    vertex 0.436442861301114 0.5472820377276204 -4.898587196589413e-17
    vertex 0.4421853335169891 0.4537622230115112 0.1488470835310329
    vertex 0.5783671420211967 0.394324040644535 -4.898587196589413e-17
  endloop
endfacet
facet normal 0.702357 0.545749 -0.457003
  outer loop
    vertex 0.5783671420211967 0.394324040644535 -4.898587196589413e-17
    vertex 0.5589649273011009 0.2927252476814571 -0.1511471609977161
    vertex 0.4416232982922464 0.4372589700333336 -0.1588859011388616
  endloop
endfacet
facet normal 0.709831 0.561566 0.425186
  outer loop
    vertex 0.5783671420211967 0.394324040644535 -4.898587196589413e-17
    vertex 0.4421853335169891 0.4537622230115112 0.1488470835310329
    vertex 0.5878221802792393 0.285149116771968 0.1284086207914508
  endloop
endfacet
facet normal 0.452363 0.783516 0.425993
  outer loop
    vertex 0.2557387170564772 0.6516116240509426 -4.898587196589413e-17
    vertex 0.3076014773271132 0.5327813872138045 0.1634878565488476
    vertex 0.436442861301114 0.5472820377276204 -4.898587196589413e-17
  endloop
endfacet
facet normal 0.471493 0.81665 -0.332833
  outer loop
    vertex 0.436442861301114 0.5472820377276204 -4.898587196589413e-17
    vertex 0.3020656564344076 0.5680219851672691 -0.1394713052024494
    vertex 0.2557387170564772 0.6516116240509426 -4.898587196589413e-17
  endloop
endfacet
facet normal 0.48791 0.747472 0.450809
  outer loop
    vertex 0.3076014773271132 0.5327813872138045 0.1634878565488476
    vertex 0.4421853335169891 0.4537622230115112 0.1488470835310329
    vertex 0.436442861301114 0.5472820377276204 -4.898587196589413e-17
  endloop
endfacet
facet normal 0.575225 0.681158 -0.452924
  outer loop
    vertex 0.4416232982922464 0.4372589700333336 -0.1588859011388616
    vertex 0.3020656564344076 0.5680219851672691 -0.1394713052024494
    vertex 0.436442861301114 0.5472820377276204 -4.898587196589413e-17
  endloop
endfacet
facet normal 0.205358 0.899734 -0.385106
  outer loop
    vertex 0.2557387170564772 0.6516116240509426 -4.898587196589413e-17
    vertex 0.1195000637609254 0.6171505763690803 -0.153161788632004
    vertex 0.05231106551049768 0.698042658026826 -4.898587196589413e-17
  endloop
endfacet
facet normal 0.201772 0.884021 0.421658
  outer loop
    vertex 0.05231106551049768 0.698042658026826 -4.898587196589413e-17
    vertex 0.1372126576981894 0.6011679329050302 0.162474273204977
    vertex 0.2557387170564772 0.6516116240509426 -4.898587196589413e-17
  endloop
endfacet
facet normal 0.322748 0.811369 0.487354
  outer loop
    vertex 0.2557387170564772 0.6516116240509426 -4.898587196589413e-17
    vertex 0.1372126576981894 0.6011679329050302 0.162474273204977
    vertex 0.3076014773271132 0.5327813872138045 0.1634878565488476
  endloop
endfacet
facet normal 0.264557 0.863402 -0.429589
  outer loop
    vertex 0.2557387170564772 0.6516116240509426 -4.898587196589413e-17
    vertex 0.3020656564344076 0.5680219851672691 -0.1394713052024494
    vertex 0.1195000637609254 0.6171505763690803 -0.153161788632004
  endloop
endfacet
facet normal -0.0697818 0.931173 -0.357837
  outer loop
    vertex 0.05231106551049768 0.698042658026826 -4.898587196589413e-17
    vertex -0.03774500318330307 0.6349757529654816 -0.1465527681245894
    vertex -0.1557646537694193 0.6824495385272766 -4.898587196589413e-17
  endloop
endfacet
facet normal -0.0661435 0.882623 0.465404
  outer loop
    vertex -0.1557646537694193 0.6824495385272766 -4.898587196589413e-17
    vertex -0.01553272203355448 0.6024488672653769 0.1716483852645062
    vertex 0.05231106551049768 0.698042658026826 -4.898587196589413e-17
  endloop
endfacet
facet normal 0.0831955 0.895793 -0.436615
  outer loop
    vertex 0.1195000637609254 0.6171505763690803 -0.153161788632004
    vertex -0.03774500318330307 0.6349757529654816 -0.1465527681245894
    vertex 0.05231106551049768 0.698042658026826 -4.898587196589413e-17
  endloop
endfacet
facet normal 0.0371419 0.866737 0.49738
  outer loop
    vertex 0.05231106551049768 0.698042658026826 -4.898587196589413e-17
    vertex -0.01553272203355448 0.6024488672653769 0.1716483852645062
    vertex 0.1372126576981894 0.6011679329050302 0.162474273204977
  endloop
endfacet
facet normal -0.330534 0.842186 0.425993
  outer loop
    vertex -0.3499999999999993 0.6062177826491074 -4.898587196589413e-17
    vertex -0.2247588776457463 0.572676280573777 0.1634878565505071
    vertex -0.1557646537694193 0.6824495385272766 -4.898587196589413e-17
  endloop
endfacet
facet normal -0.309137 0.787667 -0.53293
  outer loop
    vertex -0.1557646537694193 0.6824495385272766 -4.898587196589413e-17
    vertex -0.236939268632175 0.5255637525059093 -0.1847892222045926
    vertex -0.3499999999999993 0.6062177826491074 -4.898587196589413e-17
  endloop
endfacet
facet normal -0.140632 0.848412 0.510314
  outer loop
    vertex -0.2247588776457463 0.572676280573777 0.1634878565505071
    vertex -0.01553272203355448 0.6024488672653769 0.1716483852645062
    vertex -0.1557646537694193 0.6824495385272766 -4.898587196589413e-17
  endloop
endfacet
facet normal -0.331617 0.786051 -0.521683
  outer loop
    vertex -0.03774500318330307 0.6349757529654816 -0.1465527681245894
    vertex -0.236939268632175 0.5255637525059093 -0.1847892222045926
    vertex -0.1557646537694193 0.6824495385272766 -4.898587196589413e-17
  endloop
endfacet
facet normal -0.576234 0.722575 -0.38189
  outer loop
    vertex -0.3499999999999993 0.6062177826491074 -4.898587196589413e-17
    vertex -0.4221513589940365 0.4687140282926386 -0.1513016708108852
    vertex -0.513136310280878 0.476120916439644 -4.898587196589413e-17
  endloop
endfacet
facet normal -0.579744 0.726976 0.367971
  outer loop
    vertex -0.513136310280878 0.476120916439644 -4.898587196589413e-17
    vertex -0.3872290576263152 0.5010236665705605 0.1491700289351015
    vertex -0.3499999999999993 0.6062177826491074 -4.898587196589413e-17
  endloop
endfacet
facet normal -0.334635 0.771308 -0.541391
  outer loop
    vertex -0.3499999999999993 0.6062177826491074 -4.898587196589413e-17
    vertex -0.236939268632175 0.5255637525059093 -0.1847892222045926
    vertex -0.4221513589940365 0.4687140282926386 -0.1513016708108852
  endloop
endfacet
facet normal -0.391498 0.795181 0.463051
  outer loop
    vertex -0.3499999999999993 0.6062177826491074 -4.898587196589413e-17
    vertex -0.3872290576263152 0.5010236665705605 0.1491700289351015
    vertex -0.2247588776457463 0.572676280573777 0.1634878565505071
  endloop
endfacet
facet normal -0.74752 0.509651 0.425993
  outer loop
    vertex -0.6306782075316932 0.303718617382291 -4.898587196589413e-17
    vertex -0.5083045352069667 0.3465561641352858 0.1634878565506544
    vertex -0.513136310280878 0.476120916439644 -4.898587196589413e-17
  endloop
endfacet
facet normal -0.758582 0.517193 -0.396314
  outer loop
    vertex -0.513136310280878 0.476120916439644 -4.898587196589413e-17
    vertex -0.5215865860677534 0.3439631612329155 -0.1562924191766711
    vertex -0.6306782075316932 0.303718617382291 -4.898587196589413e-17
  endloop
endfacet
facet normal -0.691949 0.569294 -0.443972
  outer loop
    vertex -0.4221513589940365 0.4687140282926386 -0.1513016708108852
    vertex -0.5215865860677534 0.3439631612329155 -0.1562924191766711
    vertex -0.513136310280878 0.476120916439644 -4.898587196589413e-17
  endloop
endfacet
facet normal -0.672074 0.57054 0.472018
  outer loop
    vertex -0.5083045352069667 0.3465561641352858 0.1634878565506544
    vertex -0.3872290576263152 0.5010236665705605 0.1491700289351015
    vertex -0.513136310280878 0.476120916439644 -4.898587196589413e-17
  endloop
endfacet
facet normal -0.866631 0.26732 -0.421295
  outer loop
    vertex -0.6306782075316932 0.303718617382291 -4.898587196589413e-17
    vertex -0.5893462732597806 0.1817892498732123 -0.1623891400192854
    vertex -0.69218157835759 0.1043295863233223 -4.898587196589413e-17
  endloop
endfacet
facet normal -0.878025 0.270835 0.394614
  outer loop
    vertex -0.69218157835759 0.1043295863233223 -4.898587196589413e-17
    vertex -0.5977198466393561 0.1833233471004632 0.155963696745837
    vertex -0.6306782075316932 0.303718617382291 -4.898587196589413e-17
  endloop
endfacet
facet normal -0.779694 0.40509 0.477472
  outer loop
    vertex -0.6306782075316932 0.303718617382291 -4.898587196589413e-17
    vertex -0.5977198466393561 0.1833233471004632 0.155963696745837
    vertex -0.5083045352069667 0.3465561641352858 0.1634878565506544
  endloop
endfacet
facet normal -0.80704 0.354939 -0.471916
  outer loop
    vertex -0.6306782075316932 0.303718617382291 -4.898587196589413e-17
    vertex -0.5215865860677534 0.3439631612329155 -0.1562924191766711
    vertex -0.5893462732597806 0.1817892498732123 -0.1623891400192854
  endloop
endfacet
facet normal -0.916842 -0 -0.39925
  outer loop
    vertex -0.69218157835759 0.1043295863233223 -4.898587196589413e-17
    vertex -0.6237696491440868 0 -0.1571021131326681
    vertex -0.69218157835759 -0.1043295863233215 -4.898587196589413e-17
  endloop
endfacet
facet normal -0.904727 0 0.425993
  outer loop
    vertex -0.69218157835759 -0.1043295863233215 -4.898587196589413e-17
    vertex -0.6152029546516615 0 0.163487856550654
    vertex -0.69218157835759 0.1043295863233223 -4.898587196589413e-17
  endloop
endfacet
facet normal -0.866073 0.15013 -0.476841
  outer loop
    vertex -0.69218157835759 0.1043295863233223 -4.898587196589413e-17
    vertex -0.5893462732597806 0.1817892498732123 -0.1623891400192854
    vertex -0.6237696491440868 0 -0.1571021131326681
  endloop
endfacet
facet normal -0.873038 0.102824 0.476689
  outer loop
    vertex -0.6152029546516615 0 0.163487856550654
    vertex -0.5977198466393561 0.1833233471004632 0.155963696745837
    vertex -0.69218157835759 0.1043295863233223 -4.898587196589413e-17
  endloop
endfacet
facet normal -0.857152 -0.264396 -0.442024
  outer loop
    vertex -0.69218157835759 -0.1043295863233215 -4.898587196589413e-17
    vertex -0.5749729729716686 -0.2058459082506403 -0.1665633230553536
    vertex -0.6306782075316936 -0.3037186173822903 -4.898587196589413e-17
  endloop
endfacet
facet normal -0.888527 -0.274074 0.367971
  outer loop
    vertex -0.6306782075316936 -0.3037186173822903 -4.898587196589413e-17
    vertex -0.6021803428964586 -0.1958312849445879 0.1491700289351207
    vertex -0.69218157835759 -0.1043295863233215 -4.898587196589413e-17
  endloop
endfacet
facet normal -0.852692 -0.179586 -0.490576
  outer loop
    vertex -0.6237696491440868 0 -0.1571021131326681
    vertex -0.5749729729716686 -0.2058459082506403 -0.1665633230553536
    vertex -0.69218157835759 -0.1043295863233215 -4.898587196589413e-17
  endloop
endfacet
facet normal -0.87669 -0.0928098 0.472018
  outer loop
    vertex -0.69218157835759 -0.1043295863233215 -4.898587196589413e-17
    vertex -0.6021803428964586 -0.1958312849445879 0.1491700289351207
    vertex -0.6152029546516615 0 0.163487856550654
  endloop
endfacet
facet normal -0.74752 -0.509651 0.425993
  outer loop
    vertex -0.5131363102808785 -0.4761209164396434 -4.898587196589413e-17
    vertex -0.5083045352069672 -0.3465561641352853 0.1634878565506543
    vertex -0.6306782075316936 -0.3037186173822903 -4.898587196589413e-17
  endloop
endfacet
facet normal -0.775075 -0.528437 -0.34643
  outer loop
    vertex -0.6306782075316936 -0.3037186173822903 -4.898587196589413e-17
    vertex -0.5129493481644521 -0.3827787969000488 -0.1428005045886549
    vertex -0.5131363102808785 -0.4761209164396434 -4.898587196589413e-17
  endloop
endfacet
facet normal -0.771412 -0.436471 0.463051
  outer loop
    vertex -0.5083045352069672 -0.3465561641352853 0.1634878565506543
    vertex -0.6021803428964586 -0.1958312849445879 0.1491700289351207
    vertex -0.6306782075316936 -0.3037186173822903 -4.898587196589413e-17
  endloop
endfacet
facet normal -0.808826 -0.347268 -0.474558
  outer loop
    vertex -0.5749729729716686 -0.2058459082506403 -0.1665633230553536
    vertex -0.5129493481644521 -0.3827787969000488 -0.1428005045886549
    vertex -0.6306782075316936 -0.3037186173822903 -4.898587196589413e-17
  endloop
endfacet
facet normal -0.575578 -0.721752 -0.384426
  outer loop
    vertex -0.5131363102808785 -0.4761209164396434 -4.898587196589413e-17
    vertex -0.3695951039980506 -0.5093156537137133 -0.1525932419255348
    vertex -0.3500000000000003 -0.6062177826491069 -4.898587196589413e-17
  endloop
endfacet
facet normal -0.572289 -0.717628 0.396856
  outer loop
    vertex -0.3500000000000003 -0.6062177826491069 -4.898587196589413e-17
    vertex -0.3933675400652835 -0.4850924983793538 0.1564905156944223
    vertex -0.5131363102808785 -0.4761209164396434 -4.898587196589413e-17
  endloop
endfacet
facet normal -0.612996 -0.660968 -0.432847
  outer loop
    vertex -0.5131363102808785 -0.4761209164396434 -4.898587196589413e-17
    vertex -0.5129493481644521 -0.3827787969000488 -0.1428005045886549
    vertex -0.3695951039980506 -0.5093156537137133 -0.1525932419255348
  endloop
endfacet
facet normal -0.664918 -0.575688 0.475886
  outer loop
    vertex -0.5131363102808785 -0.4761209164396434 -4.898587196589413e-17
    vertex -0.3933675400652835 -0.4850924983793538 0.1564905156944223
    vertex -0.5083045352069672 -0.3465561641352853 0.1634878565506543
  endloop
endfacet
facet normal -0.330534 -0.842186 0.425993
  outer loop
    vertex -0.1557646537694202 -0.6824495385272764 -4.898587196589413e-17
    vertex -0.2247588776457475 -0.5726762805737765 0.1634878565505071
    vertex -0.3500000000000003 -0.6062177826491069 -4.898587196589413e-17
  endloop
endfacet
facet normal -0.345459 -0.880216 -0.32539
  outer loop
    vertex -0.3500000000000003 -0.6062177826491069 -4.898587196589413e-17
    vertex -0.2296842318467304 -0.6024006889802868 -0.1380621559327084
    vertex -0.1557646537694202 -0.6824495385272764 -4.898587196589413e-17
  endloop
endfacet
facet normal -0.468767 -0.771679 -0.429847
  outer loop
    vertex -0.3695951039980506 -0.5093156537137133 -0.1525932419255348
    vertex -0.2296842318467304 -0.6024006889802868 -0.1380621559327084
    vertex -0.3500000000000003 -0.6062177826491069 -4.898587196589413e-17
  endloop
endfacet
facet normal -0.42004 -0.770291 0.47981
  outer loop
    vertex -0.2247588776457475 -0.5726762805737765 0.1634878565505071
    vertex -0.3933675400652835 -0.4850924983793538 0.1564905156944223
    vertex -0.3500000000000003 -0.6062177826491069 -4.898587196589413e-17
  endloop
endfacet
facet normal -0.0672923 -0.897953 -0.434916
  outer loop
    vertex -0.1557646537694202 -0.6824495385272764 -4.898587196589413e-17
    vertex -0.03827574733664144 -0.6110954525236131 -0.1655001153727842
    vertex 0.05231106551049705 -0.6980426580268261 -4.898587196589413e-17
  endloop
endfacet
facet normal -0.0698137 -0.931599 0.35672
  outer loop
    vertex 0.05231106551049705 -0.6980426580268261 -4.898587196589413e-17
    vertex -0.04810883244344533 -0.6344696635379021 0.146372020002175
    vertex -0.1557646537694202 -0.6824495385272764 -4.898587196589413e-17
  endloop
endfacet
facet normal -0.252142 -0.849281 0.463839
  outer loop
    vertex -0.1557646537694202 -0.6824495385272764 -4.898587196589413e-17
    vertex -0.04810883244344533 -0.6344696635379021 0.146372020002175
    vertex -0.2247588776457475 -0.5726762805737765 0.1634878565505071
  endloop
endfacet
facet normal -0.105499 -0.883748 -0.455915
  outer loop
    vertex -0.1557646537694202 -0.6824495385272764 -4.898587196589413e-17
    vertex -0.2296842318467304 -0.6024006889802868 -0.1380621559327084
    vertex -0.03827574733664144 -0.6110954525236131 -0.1655001153727842
  endloop
endfacet
facet normal 0.209464 -0.917723 -0.337505
  outer loop
    vertex 0.05231106551049705 -0.6980426580268261 -4.898587196589413e-17
    vertex 0.1420733463721387 -0.6255770248077264 -0.1413354899383372
    vertex 0.2557387170564756 -0.6516116240509433 -4.898587196589413e-17
  endloop
endfacet
facet normal 0.199933 -0.875962 0.438996
  outer loop
    vertex 0.2557387170564756 -0.6516116240509433 -4.898587196589413e-17
    vertex 0.1130021123902531 -0.6009860500991978 0.1660236031318628
    vertex 0.05231106551049705 -0.6980426580268261 -4.898587196589413e-17
  endloop
endfacet
facet normal -0.00948527 -0.887355 -0.460989
  outer loop
    vertex 0.05231106551049705 -0.6980426580268261 -4.898587196589413e-17
    vertex -0.03827574733664144 -0.6110954525236131 -0.1655001153727842
    vertex 0.1420733463721387 -0.6255770248077264 -0.1413354899383372
  endloop
endfacet
facet normal 0.125143 -0.875771 0.466224
  outer loop
    vertex 0.1130021123902531 -0.6009860500991978 0.1660236031318628
    vertex -0.04810883244344533 -0.6344696635379021 0.146372020002175
    vertex 0.05231106551049705 -0.6980426580268261 -4.898587196589413e-17
  endloop
endfacet
facet normal 0.452363 -0.783516 0.425993
  outer loop
    vertex 0.4364428613011133 -0.5472820377276209 -4.898587196589413e-17
    vertex 0.3076014773271123 -0.5327813872138055 0.1634878565488473
    vertex 0.2557387170564756 -0.6516116240509433 -4.898587196589413e-17
  endloop
endfacet
facet normal 0.461801 -0.799862 -0.383354
  outer loop
    vertex 0.2557387170564756 -0.6516116240509433 -4.898587196589413e-17
    vertex 0.3033996746557074 -0.5507640795775531 -0.153003093871278
    vertex 0.4364428613011133 -0.5472820377276209 -4.898587196589413e-17
  endloop
endfacet
facet normal 0.292264 -0.815294 0.499878
  outer loop
    vertex 0.3076014773271123 -0.5327813872138055 0.1634878565488473
    vertex 0.1130021123902531 -0.6009860500991978 0.1660236031318628
    vertex 0.2557387170564756 -0.6516116240509433 -4.898587196589413e-17
  endloop
endfacet
facet normal 0.352467 -0.828056 -0.435994
  outer loop
    vertex 0.1420733463721387 -0.6255770248077264 -0.1413354899383372
    vertex 0.3033996746557074 -0.5507640795775531 -0.153003093871278
    vertex 0.2557387170564756 -0.6516116240509433 -4.898587196589413e-17
  endloop
endfacet
facet normal 0.663212 -0.61537 -0.425993
  outer loop
    vertex 0.4364428613011133 -0.5472820377276209 -4.898587196589413e-17
    vertex 0.4509756774620113 -0.4184442779495963 -0.1634878565512584
    vertex 0.5783671420211961 -0.3943240406445359 -4.898587196589413e-17
  endloop
endfacet
facet normal 0.690282 -0.640488 0.336579
  outer loop
    vertex 0.5783671420211961 -0.3943240406445359 -4.898587196589413e-17
    vertex 0.4738090955846395 -0.4328825805913879 0.1410611591338378
    vertex 0.4364428613011133 -0.5472820377276209 -4.898587196589413e-17
  endloop
endfacet
facet normal 0.502088 -0.73195 0.460606
  outer loop
    vertex 0.4364428613011133 -0.5472820377276209 -4.898587196589413e-17
    vertex 0.4738090955846395 -0.4328825805913879 0.1410611591338378
    vertex 0.3076014773271123 -0.5327813872138055 0.1634878565488473
  endloop
endfacet
facet normal 0.567291 -0.670577 -0.478025
  outer loop
    vertex 0.4364428613011133 -0.5472820377276209 -4.898587196589413e-17
    vertex 0.3033996746557074 -0.5507640795775531 -0.153003093871278
    vertex 0.4509756774620113 -0.4184442779495963 -0.1634878565512584
  endloop
endfacet
facet normal 0.857071 -0.412744 -0.308336
  outer loop
    vertex 0.5783671420211961 -0.3943240406445359 -4.898587196589413e-17
    vertex 0.5867917189099151 -0.2771096377214463 -0.1334874816552407
    vertex 0.6689009640502986 -0.2063286220876327 -4.898587196589413e-17
  endloop
endfacet
facet normal 0.857799 -0.413094 0.305834
  outer loop
    vertex 0.6689009640502986 -0.2063286220876327 -4.898587196589413e-17
    vertex 0.5821024285115121 -0.288269912447243 0.1327721653052862
    vertex 0.5783671420211961 -0.3943240406445359 -4.898587196589413e-17
  endloop
endfacet
facet normal 0.688835 -0.565722 -0.453283
  outer loop
    vertex 0.4509756774620113 -0.4184442779495963 -0.1634878565512584
    vertex 0.5867917189099151 -0.2771096377214463 -0.1334874816552407
    vertex 0.5783671420211961 -0.3943240406445359 -4.898587196589413e-17
  endloop
endfacet
facet normal 0.742871 -0.53309 0.404916
  outer loop
    vertex 0.5821024285115121 -0.288269912447243 0.1327721653052862
    vertex 0.4738090955846395 -0.4328825805913879 0.1410611591338378
    vertex 0.5783671420211961 -0.3943240406445359 -4.898587196589413e-17
  endloop
endfacet
facet normal 0.872223 -0.328627 -0.362259
  outer loop
    vertex 0.5867917189099151 -0.2771096377214463 -0.1334874816552407
    vertex 0.6716114826327296 -0.1012291432536033 -0.08881573700422339
    vertex 0.6689009640502986 -0.2063286220876327 -4.898587196589413e-17
  endloop
endfacet
facet normal 0.870369 -0.33043 0.365068
  outer loop
    vertex 0.6689009640502986 -0.2063286220876327 -4.898587196589413e-17
    vertex 0.6516121190415732 -0.1244292481150085 0.1153473597874129
    vertex 0.5821024285115121 -0.288269912447243 0.1327721653052862
  endloop
endfacet
facet normal 0.221507 -0.0953502 0.970486
  outer loop
    vertex 0.6246979603717465 -1.530068715206279e-16 0.1563662964936061
    vertex 0.5432859016594251 0.1496169296918577 0.189647926518297
    vertex 0.4554958132087363 -1.115642979342199e-16 0.1949855824363645
  endloop
endfacet
facet normal 0.221704 0.0855932 0.97135
  outer loop
    vertex 0.4554958132087363 -1.115642979342199e-16 0.1949855824363645
    vertex 0.5409350352728683 -0.1592687448794939 0.1895190382582529
    vertex 0.6246979603717465 -1.530068715206279e-16 0.1563662964936061
  endloop
endfacet
facet normal 0.585574 0.141065 0.798251
  outer loop
    vertex 0.6246979603717465 -1.530068715206279e-16 0.1563662964936061
    vertex 0.6498546393532719 0.1415076723883994 0.1129051994456634
    vertex 0.5432859016594251 0.1496169296918577 0.189647926518297
  endloop
endfacet
facet normal 0.581084 -0.138676 0.801941
  outer loop
    vertex 0.5409350352728683 -0.1592687448794939 0.1895190382582529
    vertex 0.6516121190415732 -0.1244292481150085 0.1153473597874129
    vertex 0.6246979603717465 -1.530068715206279e-16 0.1563662964936061
  endloop
endfacet
facet normal -0.602022 0.26015 0.754912
  outer loop
    vertex 0.3198062264195157 -7.832993430641073e-17 0.08677674782351076
    vertex 0.3259354271092086 -0.1755321961512325 0.1521547024015456
    vertex 0.4554958132087363 -1.115642979342199e-16 0.1949855824363645
  endloop
endfacet
facet normal -0.605239 -0.240184 0.758945
  outer loop
    vertex 0.4554958132087363 -1.115642979342199e-16 0.1949855824363645
    vertex 0.3651429727392718 0.1459020025054606 0.1691053634400496
    vertex 0.3198062264195157 -7.832993430641073e-17 0.08677674782351076
  endloop
endfacet
facet normal -0.116069 0.103347 0.98785
  outer loop
    vertex 0.5432859016594251 0.1496169296918577 0.189647926518297
    vertex 0.3651429727392718 0.1459020025054606 0.1691053634400496
    vertex 0.4554958132087363 -1.115642979342199e-16 0.1949855824363645
  endloop
endfacet
facet normal -0.161159 -0.120076 0.979597
  outer loop
    vertex 0.4554958132087363 -1.115642979342199e-16 0.1949855824363645
    vertex 0.3259354271092086 -0.1755321961512325 0.1521547024015456
    vertex 0.5409350352728683 -0.1592687448794939 0.1895190382582529
  endloop
endfacet
facet normal -0.931602 0.363481 -4.17162e-15
  outer loop
    vertex 0.3198062264195165 -7.832993430641091e-17 -0.08677674782351225
    vertex 0.259432875639472 -0.1547368493460466 -0.02873038167759425
    vertex 0.3198062264195157 -7.832993430641073e-17 0.08677674782351076
  endloop
endfacet
facet normal -0.931912 -0.362685 -4.17301e-15
  outer loop
    vertex 0.3198062264195157 -7.832993430641073e-17 0.08677674782351076
    vertex 0.2652941008496746 0.1400679836877888 -1.929499587357329e-15
    vertex 0.3198062264195165 -7.832993430641091e-17 -0.08677674782351225
  endloop
endfacet
facet normal -0.930208 0.0991411 0.353389
  outer loop
    vertex 0.259432875639472 -0.1547368493460466 -0.02873038167759425
    vertex 0.3259354271092086 -0.1755321961512325 0.1521547024015456
    vertex 0.3198062264195157 -7.832993430641073e-17 0.08677674782351076
  endloop
endfacet
facet normal -0.860633 -0.0196987 0.508844
  outer loop
    vertex 0.3198062264195157 -7.832993430641073e-17 0.08677674782351076
    vertex 0.3651429727392718 0.1459020025054606 0.1691053634400496
    vertex 0.2652941008496746 0.1400679836877888 -1.929499587357329e-15
  endloop
endfacet
facet normal -0.606454 0.232164 -0.760469
  outer loop
    vertex 0.4554958132087376 -1.115642979342202e-16 -0.1949855824363649
    vertex 0.377864197589868 -0.1318110810478166 -0.1733171399915691
    vertex 0.3198062264195165 -7.832993430641091e-17 -0.08677674782351225
  endloop
endfacet
facet normal -0.605239 -0.240184 -0.758945
  outer loop
    vertex 0.3198062264195165 -7.832993430641091e-17 -0.08677674782351225
    vertex 0.3651429727391472 0.1459020025054682 -0.1691053634399784
    vertex 0.4554958132087376 -1.115642979342202e-16 -0.1949855824363649
  endloop
endfacet
facet normal -0.777088 0.0684934 -0.625654
  outer loop
    vertex 0.377864197589868 -0.1318110810478166 -0.1733171399915691
    vertex 0.259432875639472 -0.1547368493460466 -0.02873038167759425
    vertex 0.3198062264195165 -7.832993430641091e-17 -0.08677674782351225
  endloop
endfacet
facet normal -0.860633 -0.0196987 -0.508844
  outer loop
    vertex 0.3198062264195165 -7.832993430641091e-17 -0.08677674782351225
    vertex 0.2652941008496746 0.1400679836877888 -1.929499587357329e-15
    vertex 0.3651429727391472 0.1459020025054682 -0.1691053634399784
  endloop
endfacet
facet normal 0.221248 -0.106801 -0.969352
  outer loop
    vertex 0.4554958132087376 -1.115642979342202e-16 -0.1949855824363649
    vertex 0.5203643349124398 0.1435735815699578 -0.1959983226796202
    vertex 0.6246979603717469 -1.53006871520628e-16 -0.1563662964936059
  endloop
endfacet
facet normal 0.221157 0.110569 -0.96895
  outer loop
    vertex 0.6246979603717469 -1.53006871520628e-16 -0.1563662964936059
    vertex 0.5435009283347757 -0.1375050103385335 -0.1905900199408755
    vertex 0.4554958132087376 -1.115642979342202e-16 -0.1949855824363649
  endloop
endfacet
facet normal -0.106596 -0.0998465 -0.989277
  outer loop
    vertex 0.4554958132087376 -1.115642979342202e-16 -0.1949855824363649
    vertex 0.5435009283347757 -0.1375050103385335 -0.1905900199408755
    vertex 0.377864197589868 -0.1318110810478166 -0.1733171399915691
  endloop
endfacet
facet normal -0.169286 0.069551 -0.98311
  outer loop
    vertex 0.3651429727391472 0.1459020025054682 -0.1691053634399784
    vertex 0.5203643349124398 0.1435735815699578 -0.1959983226796202
    vertex 0.4554958132087376 -1.115642979342202e-16 -0.1949855824363649
  endloop
endfacet
facet normal 0.502943 0.129595 -0.854549
  outer loop
    vertex 0.5203643349124398 0.1435735815699578 -0.1959983226796202
    vertex 0.6409782762793113 0.1353058676884961 -0.1262649958386982
    vertex 0.6246979603717469 -1.53006871520628e-16 -0.1563662964936059
  endloop
endfacet
facet normal 0.643379 -0.19571 -0.740109
  outer loop
    vertex 0.6246979603717469 -1.53006871520628e-16 -0.1563662964936059
    vertex 0.6716114826327296 -0.1012291432536033 -0.08881573700422339
    vertex 0.5435009283347757 -0.1375050103385335 -0.1905900199408755
  endloop
endfacet
facet normal -0.270689 0.023268 -0.962386
  outer loop
    vertex -0.5893462732597806 0.1817892498732123 -0.1623891400192854
    vertex -0.4716727880953231 0.05851368918050473 -0.1984674714520408
    vertex -0.6237696491440868 0 -0.1571021131326681
  endloop
endfacet
facet normal -0.311653 -0.0302274 -0.949715
  outer loop
    vertex -0.6237696491440868 0 -0.1571021131326681
    vertex -0.4857576392810073 -0.0798265445392671 -0.1998506800869863
    vertex -0.5749729729716686 -0.2058459082506403 -0.1665633230553536
  endloop
endfacet
facet normal -0.275719 0.0376754 -0.9605
  outer loop
    vertex -0.6237696491440868 0 -0.1571021131326681
    vertex -0.4716727880953231 0.05851368918050473 -0.1984674714520408
    vertex -0.4857576392810073 -0.0798265445392671 -0.1998506800869863
  endloop
endfacet
facet normal -0.709281 0.49428 -0.5026
  outer loop
    vertex 0.377864197589868 -0.1318110810478166 -0.1733171399915691
    vertex 0.2935685079753597 -0.2372627324634023 -0.1580631373118879
    vertex 0.259432875639472 -0.1547368493460466 -0.02873038167759425
  endloop
endfacet
facet normal -0.0975252 0.148356 -0.984114
  outer loop
    vertex 0.5435009283347757 -0.1375050103385335 -0.1905900199408755
    vertex 0.4311033492855583 -0.2722037949860314 -0.1997573940980002
    vertex 0.377864197589868 -0.1318110810478166 -0.1733171399915691
  endloop
endfacet
facet normal -0.271058 0.077896 -0.959406
  outer loop
    vertex 0.4311033492855583 -0.2722037949860314 -0.1997573940980002
    vertex 0.2935685079753597 -0.2372627324634023 -0.1580631373118879
    vertex 0.377864197589868 -0.1318110810478166 -0.1733171399915691
  endloop
endfacet
facet normal -0.170364 -0.190254 -0.96684
  outer loop
    vertex 0.3651429727391472 0.1459020025054682 -0.1691053634399784
    vertex 0.3566638137703472 0.2889005053062794 -0.1957504728426205
    vertex 0.5203643349124398 0.1435735815699578 -0.1959983226796202
  endloop
endfacet
facet normal -0.658986 -0.63004 -0.410837
  outer loop
    vertex 0.2652941008496746 0.1400679836877888 -1.929499587357329e-15
    vertex 0.227815514309244 0.265304040698797 -0.1319401885760164
    vertex 0.3651429727391472 0.1459020025054682 -0.1691053634399784
  endloop
endfacet
facet normal -0.407413 -0.190577 -0.893138
  outer loop
    vertex 0.227815514309244 0.265304040698797 -0.1319401885760164
    vertex 0.3566638137703472 0.2889005053062794 -0.1957504728426205
    vertex 0.3651429727391472 0.1459020025054682 -0.1691053634399784
  endloop
endfacet
facet normal 0.0956949 -0.237091 0.966763
  outer loop
    vertex 0.3076014773271123 -0.5327813872138055 0.1634878565488473
    vertex 0.195560582982485 -0.4346943759530366 0.1986332434183337
    vertex 0.1130021123902531 -0.6009860500991978 0.1660236031318628
  endloop
endfacet
facet normal 0.214264 -0.139449 0.96677
  outer loop
    vertex 0.3076014773271123 -0.5327813872138055 0.1634878565488473
    vertex 0.4738090955846395 -0.4328825805913879 0.1410611591338378
    vertex 0.296842949579978 -0.3390642775542867 0.1938143926803491
  endloop
endfacet
facet normal 0.18068 -0.142319 0.973191
  outer loop
    vertex 0.296842949579978 -0.3390642775542867 0.1938143926803491
    vertex 0.195560582982485 -0.4346943759530366 0.1986332434183337
    vertex 0.3076014773271123 -0.5327813872138055 0.1634878565488473
  endloop
endfacet
facet normal 0.145906 0.0656099 0.98712
  outer loop
    vertex 0.248755402876049 0.3428077630598713 0.1848126734394253
    vertex 0.4421853335169891 0.4537622230115112 0.1488470835310329
    vertex 0.3076014773271132 0.5327813872138045 0.1634878565488476
  endloop
endfacet
facet normal 0.21764 0.0420429 0.975123
  outer loop
    vertex 0.3076014773271132 0.5327813872138045 0.1634878565488476
    vertex 0.1548256199897752 0.4769158265654894 0.1999949754772999
    vertex 0.248755402876049 0.3428077630598713 0.1848126734394253
  endloop
endfacet
facet normal 0.115631 0.302126 0.946229
  outer loop
    vertex 0.1372126576981894 0.6011679329050302 0.162474273204977
    vertex 0.1548256199897752 0.4769158265654894 0.1999949754772999
    vertex 0.3076014773271132 0.5327813872138045 0.1634878565488476
  endloop
endfacet
facet normal -0.233312 0.199502 -0.951717
  outer loop
    vertex -0.236939268632175 0.5255637525059093 -0.1847892222045926
    vertex -0.3256740301867467 0.353651801645244 -0.1990727057521708
    vertex -0.4221513589940365 0.4687140282926386 -0.1513016708108852
  endloop
endfacet
facet normal -0.218484 0.212251 -0.952478
  outer loop
    vertex -0.4221513589940365 0.4687140282926386 -0.1513016708108852
    vertex -0.3256740301867467 0.353651801645244 -0.1990727057521708
    vertex -0.5215865860677534 0.3439631612329155 -0.1562924191766711
  endloop
endfacet
facet normal -0.143973 -0.360275 -0.921669
  outer loop
    vertex -0.1751099436902494 -0.4657939044768282 -0.1999858598880486
    vertex -0.2296842318467304 -0.6024006889802868 -0.1380621559327084
    vertex -0.3695951039980506 -0.5093156537137133 -0.1525932419255348
  endloop
endfacet
facet normal -0.178918 -0.23959 -0.954246
  outer loop
    vertex -0.3695951039980506 -0.5093156537137133 -0.1525932419255348
    vertex -0.3497260967546982 -0.3373234780645094 -0.1995021130545945
    vertex -0.1751099436902494 -0.4657939044768282 -0.1999858598880486
  endloop
endfacet
facet normal -0.263085 -0.225453 -0.938061
  outer loop
    vertex -0.5129493481644521 -0.3827787969000488 -0.1428005045886549
    vertex -0.3497260967546982 -0.3373234780645094 -0.1995021130545945
    vertex -0.3695951039980506 -0.5093156537137133 -0.1525932419255348
  endloop
endfacet
facet normal -0.0626194 0.170521 0.983362
  outer loop
    vertex -0.2247588776457463 0.572676280573777 0.1634878565505071
    vertex -0.126439123205363 0.4331057661475896 0.1939511467849177
    vertex -0.01553272203355448 0.6024488672653769 0.1716483852645062
  endloop
endfacet
facet normal -0.208395 0.285612 0.935413
  outer loop
    vertex -0.3872290576263152 0.5010236665705605 0.1491700289351015
    vertex -0.3453487073684638 0.3651625283168799 0.1999830651005228
    vertex -0.2247588776457463 0.572676280573777 0.1634878565505071
  endloop
endfacet
facet normal -0.0323515 0.191326 0.980993
  outer loop
    vertex -0.2247588776457463 0.572676280573777 0.1634878565505071
    vertex -0.3453487073684638 0.3651625283168799 0.1999830651005228
    vertex -0.126439123205363 0.4331057661475896 0.1939511467849177
  endloop
endfacet
facet normal -0.176969 -0.264956 0.947882
  outer loop
    vertex -0.2247588776457475 -0.5726762805737765 0.1634878565505071
    vertex -0.2572996933359058 -0.4207357102509113 0.1998835176117012
    vertex -0.3933675400652835 -0.4850924983793538 0.1564905156944223
  endloop
endfacet
facet normal -0.0316496 -0.349814 0.936284
  outer loop
    vertex -0.04810883244344533 -0.6344696635379021 0.146372020002175
    vertex -0.08763289886331953 -0.4875040600780877 0.1999451852457893
    vertex -0.2247588776457475 -0.5726762805737765 0.1634878565505071
  endloop
endfacet
facet normal -0.0994759 -0.251892 0.962629
  outer loop
    vertex -0.08763289886331953 -0.4875040600780877 0.1999451852457893
    vertex -0.2572996933359058 -0.4207357102509113 0.1998835176117012
    vertex -0.2247588776457475 -0.5726762805737765 0.1634878565505071
  endloop
endfacet
facet normal 0.0889717 -0.33798 -0.936938
  outer loop
    vertex 0.1420733463721387 -0.6255770248077264 -0.1413354899383372
    vertex 0.145143422590225 -0.4635513724951925 -0.1994912143044713
    vertex 0.3033996746557074 -0.5507640795775531 -0.153003093871278
  endloop
endfacet
facet normal 0.0982927 -0.337841 -0.936057
  outer loop
    vertex -0.03827574733664144 -0.6110954525236131 -0.1655001153727842
    vertex 0.145143422590225 -0.4635513724951925 -0.1994912143044713
    vertex 0.1420733463721387 -0.6255770248077264 -0.1413354899383372
  endloop
endfacet
facet normal -0.00513422 0.307507 -0.951532
  outer loop
    vertex -0.04399463368317624 0.473960157572856 -0.198554493755368
    vertex -0.03774500318330307 0.6349757529654816 -0.1465527681245894
    vertex 0.1195000637609254 0.6171505763690803 -0.153161788632004
  endloop
endfacet
facet normal 0.0551263 0.243989 -0.96821
  outer loop
    vertex 0.1195000637609254 0.6171505763690803 -0.153161788632004
    vertex 0.1942684676402257 0.4250463857807507 -0.1973149362444294
    vertex -0.04399463368317624 0.473960157572856 -0.198554493755368
  endloop
endfacet
facet normal 0.145269 0.274982 -0.950411
  outer loop
    vertex 0.3020656564344076 0.5680219851672691 -0.1394713052024494
    vertex 0.1942684676402257 0.4250463857807507 -0.1973149362444294
    vertex 0.1195000637609254 0.6171505763690803 -0.153161788632004
  endloop
endfacet
facet normal -0.111767 -0.104837 0.988189
  outer loop
    vertex 0.5432859016594251 0.1496169296918577 0.189647926518297
    vertex 0.4547414761791673 0.2971023512245633 0.1952800211587413
    vertex 0.3651429727392718 0.1459020025054606 0.1691053634400496
  endloop
endfacet
facet normal 0.453026 0.239183 0.858813
  outer loop
    vertex 0.5432859016594251 0.1496169296918577 0.189647926518297
    vertex 0.5878221802792393 0.285149116771968 0.1284086207914508
    vertex 0.4547414761791673 0.2971023512245633 0.1952800211587413
  endloop
endfacet
facet normal 0.584515 0.166721 0.794069
  outer loop
    vertex 0.5432859016594251 0.1496169296918577 0.189647926518297
    vertex 0.6498546393532719 0.1415076723883994 0.1129051994456634
    vertex 0.5878221802792393 0.285149116771968 0.1284086207914508
  endloop
endfacet
facet normal -0.179841 0.140727 0.973577
  outer loop
    vertex 0.3259354271092086 -0.1755321961512325 0.1521547024015456
    vertex 0.4521755286467021 -0.3071121068968845 0.1944933754228131
    vertex 0.5409350352728683 -0.1592687448794939 0.1895190382582529
  endloop
endfacet
facet normal 0.444705 -0.237931 0.863496
  outer loop
    vertex 0.4521755286467021 -0.3071121068968845 0.1944933754228131
    vertex 0.5821024285115121 -0.288269912447243 0.1327721653052862
    vertex 0.5409350352728683 -0.1592687448794939 0.1895190382582529
  endloop
endfacet
facet normal 0.584194 -0.163293 0.795018
  outer loop
    vertex 0.5821024285115121 -0.288269912447243 0.1327721653052862
    vertex 0.6516121190415732 -0.1244292481150085 0.1153473597874129
    vertex 0.5409350352728683 -0.1592687448794939 0.1895190382582529
  endloop
endfacet
facet normal -0.239881 0.274342 0.931232
  outer loop
    vertex -0.5083045352069667 0.3465561641352858 0.1634878565506544
    vertex -0.3453487073684638 0.3651625283168799 0.1999830651005228
    vertex -0.3872290576263152 0.5010236665705605 0.1491700289351015
  endloop
endfacet
facet normal -0.330345 0.137916 0.93373
  outer loop
    vertex -0.5977198466393561 0.1833233471004632 0.155963696745837
    vertex -0.4566359180892444 0.2244321713216609 0.1998059285637551
    vertex -0.5083045352069667 0.3465561641352858 0.1634878565506544
  endloop
endfacet
facet normal -0.234804 0.184478 0.954377
  outer loop
    vertex -0.4566359180892444 0.2244321713216609 0.1998059285637551
    vertex -0.3453487073684638 0.3651625283168799 0.1999830651005228
    vertex -0.5083045352069667 0.3465561641352858 0.1634878565506544
  endloop
endfacet
facet normal -0.122543 -0.151211 0.980876
  outer loop
    vertex -0.5083045352069672 -0.3465561641352853 0.1634878565506543
    vertex -0.3933675400652835 -0.4850924983793538 0.1564905156944223
    vertex -0.3376623423739087 -0.2935873576394041 0.192972147905691
  endloop
endfacet
facet normal -0.115355 -0.17286 0.978168
  outer loop
    vertex -0.3376623423739087 -0.2935873576394041 0.192972147905691
    vertex -0.4963124563552475 -0.1533124975493076 0.1990517642957506
    vertex -0.5083045352069672 -0.3465561641352853 0.1634878565506543
  endloop
endfacet
facet normal -0.373287 -0.145457 0.916242
  outer loop
    vertex -0.5083045352069672 -0.3465561641352853 0.1634878565506543
    vertex -0.4963124563552475 -0.1533124975493076 0.1990517642957506
    vertex -0.6021803428964586 -0.1958312849445879 0.1491700289351207
  endloop
endfacet
facet normal -0.229135 0.0617228 0.971436
  outer loop
    vertex -0.6152029546516615 0 0.163487856550654
    vertex -0.4619387031029004 0.04528700617129726 0.1967613110246366
    vertex -0.5977198466393561 0.1833233471004632 0.155963696745837
  endloop
endfacet
facet normal -0.393556 -0.0930389 0.91458
  outer loop
    vertex -0.6021803428964586 -0.1958312849445879 0.1491700289351207
    vertex -0.4963124563552475 -0.1533124975493076 0.1990517642957506
    vertex -0.6152029546516615 0 0.163487856550654
  endloop
endfacet
facet normal -0.226072 0.0503482 0.972808
  outer loop
    vertex -0.6152029546516615 0 0.163487856550654
    vertex -0.4963124563552475 -0.1533124975493076 0.1990517642957506
    vertex -0.4619387031029004 0.04528700617129726 0.1967613110246366
  endloop
endfacet
facet normal 0.133536 0.28351 -0.949626
  outer loop
    vertex 0.4416232982922464 0.4372589700333336 -0.1588859011388616
    vertex 0.1942684676402257 0.4250463857807507 -0.1973149362444294
    vertex 0.3020656564344076 0.5680219851672691 -0.1394713052024494
  endloop
endfacet
facet normal 0.211595 0.119851 -0.969981
  outer loop
    vertex 0.5589649273011009 0.2927252476814571 -0.1511471609977161
    vertex 0.3566638137703472 0.2889005053062794 -0.1957504728426205
    vertex 0.4416232982922464 0.4372589700333336 -0.1588859011388616
  endloop
endfacet
facet normal 0.1438 0.160304 -0.976537
  outer loop
    vertex 0.4416232982922464 0.4372589700333336 -0.1588859011388616
    vertex 0.3566638137703472 0.2889005053062794 -0.1957504728426205
    vertex 0.1942684676402257 0.4250463857807507 -0.1973149362444294
  endloop
endfacet
facet normal 0.135957 -0.228027 -0.964116
  outer loop
    vertex 0.3033996746557074 -0.5507640795775531 -0.153003093871278
    vertex 0.2883171720718431 -0.3708067679071242 -0.1976924891949742
    vertex 0.4509756774620113 -0.4184442779495963 -0.1634878565512584
  endloop
endfacet
facet normal 0.138407 -0.220645 -0.965484
  outer loop
    vertex 0.2883171720718431 -0.3708067679071242 -0.1976924891949742
    vertex 0.4311033492855583 -0.2722037949860314 -0.1997573940980002
    vertex 0.4509756774620113 -0.4184442779495963 -0.1634878565512584
  endloop
endfacet
facet normal 0.381085 -0.173442 -0.908126
  outer loop
    vertex 0.4509756774620113 -0.4184442779495963 -0.1634878565512584
    vertex 0.4311033492855583 -0.2722037949860314 -0.1997573940980002
    vertex 0.5867917189099151 -0.2771096377214463 -0.1334874816552407
  endloop
endfacet
facet normal -0.594386 0.74446 0.304113
  outer loop
    vertex 0.259432875639472 -0.1547368493460466 -0.02873038167759425
    vertex 0.1715082377581102 -0.2765007876204054 0.09749617021639073
    vertex 0.3259354271092086 -0.1755321961512325 0.1521547024015456
  endloop
endfacet
facet normal -0.801711 0.597445 0.0178817
  outer loop
    vertex 0.259432875639472 -0.1547368493460466 -0.02873038167759425
    vertex 0.1557534883019233 -0.2915446302136471 -0.1062246774553336
    vertex 0.1715082377581102 -0.2765007876204054 0.09749617021639073
  endloop
endfacet
facet normal -0.477304 0.678222 -0.558745
  outer loop
    vertex 0.259432875639472 -0.1547368493460466 -0.02873038167759425
    vertex 0.2935685079753597 -0.2372627324634023 -0.1580631373118879
    vertex 0.1557534883019233 -0.2915446302136471 -0.1062246774553336
  endloop
endfacet
facet normal -0.484791 0.295916 0.82305
  outer loop
    vertex 0.1715082377581102 -0.2765007876204054 0.09749617021639073
    vertex 0.296842949579978 -0.3390642775542867 0.1938143926803491
    vertex 0.3259354271092086 -0.1755321961512325 0.1521547024015456
  endloop
endfacet
facet normal -0.0568684 0.255954 0.965015
  outer loop
    vertex 0.3259354271092086 -0.1755321961512325 0.1521547024015456
    vertex 0.296842949579978 -0.3390642775542867 0.1938143926803491
    vertex 0.4521755286467021 -0.3071121068968845 0.1944933754228131
  endloop
endfacet
facet normal -0.0940868 0.993369 -0.0660795
  outer loop
    vertex 0.1557534883019233 -0.2915446302136471 -0.1062246774553336
    vertex -0.01571333655507839 -0.2999356385720595 0.01177554750747599
    vertex 0.1715082377581102 -0.2765007876204054 0.09749617021639073
  endloop
endfacet
facet normal -0.358143 0.729438 0.582798
  outer loop
    vertex -0.01571333655507839 -0.2999356385720595 0.01177554750747599
    vertex 0.0498801235498018 -0.3965629461742509 0.1730243545796354
    vertex 0.1715082377581102 -0.2765007876204054 0.09749617021639073
  endloop
endfacet
facet normal -0.00741587 0.537835 0.843018
  outer loop
    vertex 0.0498801235498018 -0.3965629461742509 0.1730243545796354
    vertex 0.195560582982485 -0.4346943759530366 0.1986332434183337
    vertex 0.1715082377581102 -0.2765007876204054 0.09749617021639073
  endloop
endfacet
facet normal -0.389805 0.45324 0.801639
  outer loop
    vertex 0.1715082377581102 -0.2765007876204054 0.09749617021639073
    vertex 0.195560582982485 -0.4346943759530366 0.1986332434183337
    vertex 0.296842949579978 -0.3390642775542867 0.1938143926803491
  endloop
endfacet
facet normal -0.340493 0.8333 -0.435517
  outer loop
    vertex 0.1557534883019233 -0.2915446302136471 -0.1062246774553336
    vertex -0.01536524559614506 -0.3950119302631123 -0.1704116825150528
    vertex -0.01571333655507839 -0.2999356385720595 0.01177554750747599
  endloop
endfacet
facet normal 0.043155 0.474161 -0.87938
  outer loop
    vertex 0.1557534883019233 -0.2915446302136471 -0.1062246774553336
    vertex 0.145143422590225 -0.4635513724951925 -0.1994912143044713
    vertex -0.01536524559614506 -0.3950119302631123 -0.1704116825150528
  endloop
endfacet
facet normal -0.29372 0.469576 -0.832602
  outer loop
    vertex 0.2883171720718431 -0.3708067679071242 -0.1976924891949742
    vertex 0.145143422590225 -0.4635513724951925 -0.1994912143044713
    vertex 0.1557534883019233 -0.2915446302136471 -0.1062246774553336
  endloop
endfacet
facet normal -0.43086 0.272258 -0.860369
  outer loop
    vertex 0.1557534883019233 -0.2915446302136471 -0.1062246774553336
    vertex 0.2935685079753597 -0.2372627324634023 -0.1580631373118879
    vertex 0.2883171720718431 -0.3708067679071242 -0.1976924891949742
  endloop
endfacet
facet normal 0.190323 0.874307 0.446503
  outer loop
    vertex -0.01571333655507839 -0.2999356385720595 0.01177554750747599
    vertex -0.1353968145000178 -0.3462605441567161 0.1535007872215027
    vertex 0.0498801235498018 -0.3965629461742509 0.1730243545796354
  endloop
endfacet
facet normal 0.374388 0.812345 -0.447135
  outer loop
    vertex -0.01571333655507839 -0.2999356385720595 0.01177554750747599
    vertex -0.1832109884874251 -0.3059805862866501 -0.1394533089706303
    vertex -0.2336060719099497 -0.1911302274159801 0.02700827080591818
  endloop
endfacet
facet normal 0.398357 0.717802 0.571027
  outer loop
    vertex -0.2336060719099497 -0.1911302274159801 0.02700827080591818
    vertex -0.1353968145000178 -0.3462605441567161 0.1535007872215027
    vertex -0.01571333655507839 -0.2999356385720595 0.01177554750747599
  endloop
endfacet
facet normal 0.359443 0.827572 -0.43119
  outer loop
    vertex -0.01571333655507839 -0.2999356385720595 0.01177554750747599
    vertex -0.01536524559614506 -0.3950119302631123 -0.1704116825150528
    vertex -0.1832109884874251 -0.3059805862866501 -0.1394533089706303
  endloop
endfacet
facet normal -0.0168674 0.307174 0.951504
  outer loop
    vertex -0.1353968145000178 -0.3462605441567161 0.1535007872215027
    vertex -0.08763289886331953 -0.4875040600780877 0.1999451852457893
    vertex 0.0498801235498018 -0.3965629461742509 0.1730243545796354
  endloop
endfacet
facet normal 0.178426 0.0214057 0.98372
  outer loop
    vertex 0.0498801235498018 -0.3965629461742509 0.1730243545796354
    vertex -0.08763289886331953 -0.4875040600780877 0.1999451852457893
    vertex 0.1130021123902531 -0.6009860500991978 0.1660236031318628
  endloop
endfacet
facet normal -0.196183 -0.0940039 0.976051
  outer loop
    vertex 0.1130021123902531 -0.6009860500991978 0.1660236031318628
    vertex 0.195560582982485 -0.4346943759530366 0.1986332434183337
    vertex 0.0498801235498018 -0.3965629461742509 0.1730243545796354
  endloop
endfacet
facet normal 0.444712 -0.28434 0.849342
  outer loop
    vertex 0.4521755286467021 -0.3071121068968845 0.1944933754228131
    vertex 0.4738090955846395 -0.4328825805913879 0.1410611591338378
    vertex 0.5821024285115121 -0.288269912447243 0.1327721653052862
  endloop
endfacet
facet normal 0.0739581 -0.379141 0.922379
  outer loop
    vertex 0.296842949579978 -0.3390642775542867 0.1938143926803491
    vertex 0.4738090955846395 -0.4328825805913879 0.1410611591338378
    vertex 0.4521755286467021 -0.3071121068968845 0.1944933754228131
  endloop
endfacet
facet normal 0.205196 0.232761 -0.95064
  outer loop
    vertex 0.5203643349124398 0.1435735815699578 -0.1959983226796202
    vertex 0.3566638137703472 0.2889005053062794 -0.1957504728426205
    vertex 0.5589649273011009 0.2927252476814571 -0.1511471609977161
  endloop
endfacet
facet normal 0.50298 0.126913 -0.85493
  outer loop
    vertex 0.5589649273011009 0.2927252476814571 -0.1511471609977161
    vertex 0.6409782762793113 0.1353058676884961 -0.1262649958386982
    vertex 0.5203643349124398 0.1435735815699578 -0.1959983226796202
  endloop
endfacet
facet normal -0.623 -0.677361 0.391221
  outer loop
    vertex 0.3651429727392718 0.1459020025054606 0.1691053634400496
    vertex 0.2497432210215836 0.2144546976845726 0.1040293009357274
    vertex 0.2652941008496746 0.1400679836877888 -1.929499587357329e-15
  endloop
endfacet
facet normal -0.722683 -0.592041 -0.356674
  outer loop
    vertex 0.2652941008496746 0.1400679836877888 -1.929499587357329e-15
    vertex 0.1404794198768533 0.2692832679208539 0.03841254337137262
    vertex 0.227815514309244 0.265304040698797 -0.1319401885760164
  endloop
endfacet
facet normal -0.593189 -0.694189 0.407711
  outer loop
    vertex 0.2652941008496746 0.1400679836877888 -1.929499587357329e-15
    vertex 0.2497432210215836 0.2144546976845726 0.1040293009357274
    vertex 0.1404794198768533 0.2692832679208539 0.03841254337137262
  endloop
endfacet
facet normal -0.0779976 -0.125003 0.989086
  outer loop
    vertex 0.4547414761791673 0.2971023512245633 0.1952800211587413
    vertex 0.248755402876049 0.3428077630598713 0.1848126734394253
    vertex 0.3651429727392718 0.1459020025054606 0.1691053634400496
  endloop
endfacet
facet normal -0.622173 -0.420436 0.660405
  outer loop
    vertex 0.248755402876049 0.3428077630598713 0.1848126734394253
    vertex 0.2497432210215836 0.2144546976845726 0.1040293009357274
    vertex 0.3651429727392718 0.1459020025054606 0.1691053634400496
  endloop
endfacet
facet normal 0.0145865 0.285218 0.958352
  outer loop
    vertex 0.4547414761791673 0.2971023512245633 0.1952800211587413
    vertex 0.4421853335169891 0.4537622230115112 0.1488470835310329
    vertex 0.248755402876049 0.3428077630598713 0.1848126734394253
  endloop
endfacet
facet normal 0.450578 0.286699 0.845448
  outer loop
    vertex 0.5878221802792393 0.285149116771968 0.1284086207914508
    vertex 0.4421853335169891 0.4537622230115112 0.1488470835310329
    vertex 0.4547414761791673 0.2971023512245633 0.1952800211587413
  endloop
endfacet
facet normal -0.39655 -0.899733 -0.182286
  outer loop
    vertex 0.1404794198768533 0.2692832679208539 0.03841254337137262
    vertex 0.05266033531803022 0.3415144046112404 -0.1270644518891475
    vertex 0.227815514309244 0.265304040698797 -0.1319401885760164
  endloop
endfacet
facet normal -0.201875 -0.406977 -0.890851
  outer loop
    vertex 0.05266033531803022 0.3415144046112404 -0.1270644518891475
    vertex 0.1942684676402257 0.4250463857807507 -0.1973149362444294
    vertex 0.227815514309244 0.265304040698797 -0.1319401885760164
  endloop
endfacet
facet normal -0.34107 -0.416514 -0.842726
  outer loop
    vertex 0.1942684676402257 0.4250463857807507 -0.1973149362444294
    vertex 0.3566638137703472 0.2889005053062794 -0.1957504728426205
    vertex 0.227815514309244 0.265304040698797 -0.1319401885760164
  endloop
endfacet
facet normal -0.155333 -0.932941 -0.324796
  outer loop
    vertex 0.1404794198768533 0.2692832679208539 0.03841254337137262
    vertex -0.05895690910407734 0.2997111489957295 0.04639181245997039
    vertex 0.05266033531803022 0.3415144046112404 -0.1270644518891475
  endloop
endfacet
facet normal -0.0919032 -0.76844 0.633288
  outer loop
    vertex 0.1404794198768533 0.2692832679208539 0.03841254337137262
    vertex 0.04943511789712093 0.3853566253165071 0.1660451612806328
    vertex -0.05895690910407734 0.2997111489957295 0.04639181245997039
  endloop
endfacet
facet normal -0.222837 -0.795067 0.564103
  outer loop
    vertex 0.1404794198768533 0.2692832679208539 0.03841254337137262
    vertex 0.248755402876049 0.3428077630598713 0.1848126734394253
    vertex 0.04943511789712093 0.3853566253165071 0.1660451612806328
  endloop
endfacet
facet normal -0.613095 -0.424184 0.66647
  outer loop
    vertex 0.1404794198768533 0.2692832679208539 0.03841254337137262
    vertex 0.2497432210215836 0.2144546976845726 0.1040293009357274
    vertex 0.248755402876049 0.3428077630598713 0.1848126734394253
  endloop
endfacet
facet normal 0.0311469 -0.976075 -0.215193
  outer loop
    vertex -0.05895690910407734 0.2997111489957295 0.04639181245997039
    vertex -0.141741334699308 0.3405995623446525 -0.1510525126147969
    vertex 0.05266033531803022 0.3415144046112404 -0.1270644518891475
  endloop
endfacet
facet normal 0.113783 -0.406327 -0.906616
  outer loop
    vertex -0.141741334699308 0.3405995623446525 -0.1510525126147969
    vertex -0.04399463368317624 0.473960157572856 -0.198554493755368
    vertex 0.05266033531803022 0.3415144046112404 -0.1270644518891475
  endloop
endfacet
facet normal -0.104505 -0.530371 -0.8413
  outer loop
    vertex -0.04399463368317624 0.473960157572856 -0.198554493755368
    vertex 0.1942684676402257 0.4250463857807507 -0.1973149362444294
    vertex 0.05266033531803022 0.3415144046112404 -0.1270644518891475
  endloop
endfacet
facet normal -0.105096 -0.761142 0.640014
  outer loop
    vertex 0.04943511789712093 0.3853566253165071 0.1660451612806328
    vertex -0.126439123205363 0.4331057661475896 0.1939511467849177
    vertex -0.05895690910407734 0.2997111489957295 0.04639181245997039
  endloop
endfacet
facet normal 0.609076 -0.686309 -0.3975
  outer loop
    vertex -0.05895690910407734 0.2997111489957295 0.04639181245997039
    vertex -0.230804214227333 0.1987722095756309 -0.04264648112438162
    vertex -0.141741334699308 0.3405995623446525 -0.1510525126147969
  endloop
endfacet
facet normal 0.314715 -0.870197 0.379094
  outer loop
    vertex -0.05895690910407734 0.2997111489957295 0.04639181245997039
    vertex -0.2203394288185191 0.282665982349719 0.1412410339983312
    vertex -0.230804214227333 0.1987722095756309 -0.04264648112438162
  endloop
endfacet
facet normal 0.468629 -0.538002 0.700672
  outer loop
    vertex -0.05895690910407734 0.2997111489957295 0.04639181245997039
    vertex -0.126439123205363 0.4331057661475896 0.1939511467849177
    vertex -0.2203394288185191 0.282665982349719 0.1412410339983312
  endloop
endfacet
facet normal -0.134894 -0.204246 0.969581
  outer loop
    vertex 0.248755402876049 0.3428077630598713 0.1848126734394253
    vertex 0.1548256199897752 0.4769158265654894 0.1999949754772999
    vertex 0.04943511789712093 0.3853566253165071 0.1660451612806328
  endloop
endfacet
facet normal 0.162827 0.0232693 0.98638
  outer loop
    vertex -0.01553272203355448 0.6024488672653769 0.1716483852645062
    vertex -0.126439123205363 0.4331057661475896 0.1939511467849177
    vertex 0.04943511789712093 0.3853566253165071 0.1660451612806328
  endloop
endfacet
facet normal -0.230387 -0.0939453 0.968553
  outer loop
    vertex 0.04943511789712093 0.3853566253165071 0.1660451612806328
    vertex 0.1548256199897752 0.4769158265654894 0.1999949754772999
    vertex -0.01553272203355448 0.6024488672653769 0.1716483852645062
  endloop
endfacet
facet normal 0.146414 -0.657125 -0.739425
  outer loop
    vertex -0.230804214227333 0.1987722095756309 -0.04264648112438162
    vertex -0.3256740301867467 0.353651801645244 -0.1990727057521708
    vertex -0.141741334699308 0.3405995623446525 -0.1510525126147969
  endloop
endfacet
facet normal -0.133797 -0.244052 -0.960488
  outer loop
    vertex -0.141741334699308 0.3405995623446525 -0.1510525126147969
    vertex -0.236939268632175 0.5255637525059093 -0.1847892222045926
    vertex -0.04399463368317624 0.473960157572856 -0.198554493755368
  endloop
endfacet
facet normal 0.24911 -0.0482144 -0.967274
  outer loop
    vertex -0.141741334699308 0.3405995623446525 -0.1510525126147969
    vertex -0.3256740301867467 0.353651801645244 -0.1990727057521708
    vertex -0.236939268632175 0.5255637525059093 -0.1847892222045926
  endloop
endfacet
facet normal 0.793558 -0.569393 0.21461
  outer loop
    vertex -0.2203394288185191 0.282665982349719 0.1412410339983312
    vertex -0.3308517581407632 0.1271012924005335 0.1371427822373663
    vertex -0.230804214227333 0.1987722095756309 -0.04264648112438162
  endloop
endfacet
facet normal 0.853425 -0.421214 0.306994
  outer loop
    vertex -0.3308517581407632 0.1271012924005335 0.1371427822373663
    vertex -0.3145708716252794 0.005430794698387531 -0.07505611446823152
    vertex -0.230804214227333 0.1987722095756309 -0.04264648112438162
  endloop
endfacet
facet normal 0.695974 -0.185241 -0.693762
  outer loop
    vertex -0.3145708716252794 0.005430794698387531 -0.07505611446823152
    vertex -0.376794883607467 0.1531366043762181 -0.1769174084019545
    vertex -0.230804214227333 0.1987722095756309 -0.04264648112438162
  endloop
endfacet
facet normal 0.6966 -0.251826 -0.671812
  outer loop
    vertex -0.376794883607467 0.1531366043762181 -0.1769174084019545
    vertex -0.3256740301867467 0.353651801645244 -0.1990727057521708
    vertex -0.230804214227333 0.1987722095756309 -0.04264648112438162
  endloop
endfacet
facet normal 0.286662 -0.228156 0.930467
  outer loop
    vertex -0.2203394288185191 0.282665982349719 0.1412410339983312
    vertex -0.3453487073684638 0.3651625283168799 0.1999830651005228
    vertex -0.3308517581407632 0.1271012924005335 0.1371427822373663
  endloop
endfacet
facet normal 0.152031 -0.409994 0.899328
  outer loop
    vertex -0.126439123205363 0.4331057661475896 0.1939511467849177
    vertex -0.3453487073684638 0.3651625283168799 0.1999830651005228
    vertex -0.2203394288185191 0.282665982349719 0.1412410339983312
  endloop
endfacet
facet normal 0.978612 -0.136879 0.153568
  outer loop
    vertex -0.3308517581407632 0.1271012924005335 0.1371427822373663
    vertex -0.361376246566037 -0.07530829124054549 0.1512467725515902
    vertex -0.3145708716252794 0.005430794698387531 -0.07505611446823152
  endloop
endfacet
facet normal 0.413427 0.00109949 0.910537
  outer loop
    vertex -0.3308517581407632 0.1271012924005335 0.1371427822373663
    vertex -0.4619387031029004 0.04528700617129726 0.1967613110246366
    vertex -0.361376246566037 -0.07530829124054549 0.1512467725515902
  endloop
endfacet
facet normal 0.428275 -0.0280275 0.903214
  outer loop
    vertex -0.3308517581407632 0.1271012924005335 0.1371427822373663
    vertex -0.4566359180892444 0.2244321713216609 0.1998059285637551
    vertex -0.4619387031029004 0.04528700617129726 0.1967613110246366
  endloop
endfacet
facet normal 0.286984 -0.228113 0.930379
  outer loop
    vertex -0.3308517581407632 0.1271012924005335 0.1371427822373663
    vertex -0.3453487073684638 0.3651625283168799 0.1999830651005228
    vertex -0.4566359180892444 0.2244321713216609 0.1998059285637551
  endloop
endfacet
facet normal 0.791856 0.504712 0.343845
  outer loop
    vertex -0.361376246566037 -0.07530829124054549 0.1512467725515902
    vertex -0.2336060719099497 -0.1911302274159801 0.02700827080591818
    vertex -0.3145708716252794 0.005430794698387531 -0.07505611446823152
  endloop
endfacet
facet normal 0.51092 -0.331679 -0.793063
  outer loop
    vertex -0.3145708716252794 0.005430794698387531 -0.07505611446823152
    vertex -0.4716727880953231 0.05851368918050473 -0.1984674714520408
    vertex -0.376794883607467 0.1531366043762181 -0.1769174084019545
  endloop
endfacet
facet normal 0.870521 0.109432 -0.479809
  outer loop
    vertex -0.2336060719099497 -0.1911302274159801 0.02700827080591818
    vertex -0.3372326045346641 -0.1533867088354318 -0.1523936645606924
    vertex -0.3145708716252794 0.005430794698387531 -0.07505611446823152
  endloop
endfacet
facet normal 0.435775 0.343029 -0.832125
  outer loop
    vertex -0.3372326045346641 -0.1533867088354318 -0.1523936645606924
    vertex -0.4857576392810073 -0.0798265445392671 -0.1998506800869863
    vertex -0.3145708716252794 0.005430794698387531 -0.07505611446823152
  endloop
endfacet
facet normal 0.605563 -0.0537155 -0.793983
  outer loop
    vertex -0.4857576392810073 -0.0798265445392671 -0.1998506800869863
    vertex -0.4716727880953231 0.05851368918050473 -0.1984674714520408
    vertex -0.3145708716252794 0.005430794698387531 -0.07505611446823152
  endloop
endfacet
facet normal 0.770064 0.199495 0.605973
  outer loop
    vertex -0.361376246566037 -0.07530829124054549 0.1512467725515902
    vertex -0.3376623423739087 -0.2935873576394041 0.192972147905691
    vertex -0.2336060719099497 -0.1911302274159801 0.02700827080591818
  endloop
endfacet
facet normal 0.218765 0.206085 0.953767
  outer loop
    vertex -0.361376246566037 -0.07530829124054549 0.1512467725515902
    vertex -0.4963124563552475 -0.1533124975493076 0.1990517642957506
    vertex -0.3376623423739087 -0.2935873576394041 0.192972147905691
  endloop
endfacet
facet normal 0.359835 -0.0515365 0.931591
  outer loop
    vertex -0.4619387031029004 0.04528700617129726 0.1967613110246366
    vertex -0.4963124563552475 -0.1533124975493076 0.1990517642957506
    vertex -0.361376246566037 -0.07530829124054549 0.1512467725515902
  endloop
endfacet
facet normal -0.059686 0.0623914 -0.996265
  outer loop
    vertex -0.5893462732597806 0.1817892498732123 -0.1623891400192854
    vertex -0.5215865860677534 0.3439631612329155 -0.1562924191766711
    vertex -0.376794883607467 0.1531366043762181 -0.1769174084019545
  endloop
endfacet
facet normal -0.032076 0.252414 -0.967088
  outer loop
    vertex -0.376794883607467 0.1531366043762181 -0.1769174084019545
    vertex -0.4716727880953231 0.05851368918050473 -0.1984674714520408
    vertex -0.5893462732597806 0.1817892498732123 -0.1623891400192854
  endloop
endfacet
facet normal -0.210465 -0.0541934 -0.976098
  outer loop
    vertex -0.5215865860677534 0.3439631612329155 -0.1562924191766711
    vertex -0.3256740301867467 0.353651801645244 -0.1990727057521708
    vertex -0.376794883607467 0.1531366043762181 -0.1769174084019545
  endloop
endfacet
facet normal 0.690981 0.675654 -0.256978
  outer loop
    vertex -0.2336060719099497 -0.1911302274159801 0.02700827080591818
    vertex -0.1832109884874251 -0.3059805862866501 -0.1394533089706303
    vertex -0.3372326045346641 -0.1533867088354318 -0.1523936645606924
  endloop
endfacet
facet normal 0.308464 0.710765 0.632189
  outer loop
    vertex -0.3376623423739087 -0.2935873576394041 0.192972147905691
    vertex -0.1353968145000178 -0.3462605441567161 0.1535007872215027
    vertex -0.2336060719099497 -0.1911302274159801 0.02700827080591818
  endloop
endfacet
facet normal 0.294436 0.21829 -0.930407
  outer loop
    vertex -0.1832109884874251 -0.3059805862866501 -0.1394533089706303
    vertex -0.3497260967546982 -0.3373234780645094 -0.1995021130545945
    vertex -0.3372326045346641 -0.1533867088354318 -0.1523936645606924
  endloop
endfacet
facet normal 0.00303742 0.24791 -0.968778
  outer loop
    vertex -0.3372326045346641 -0.1533867088354318 -0.1523936645606924
    vertex -0.3497260967546982 -0.3373234780645094 -0.1995021130545945
    vertex -0.5749729729716686 -0.2058459082506403 -0.1665633230553536
  endloop
endfacet
facet normal 0.130207 -0.338354 -0.931967
  outer loop
    vertex -0.5749729729716686 -0.2058459082506403 -0.1665633230553536
    vertex -0.4857576392810073 -0.0798265445392671 -0.1998506800869863
    vertex -0.3372326045346641 -0.1533867088354318 -0.1523936645606924
  endloop
endfacet
facet normal 0.238014 0.202073 0.950008
  outer loop
    vertex -0.3376623423739087 -0.2935873576394041 0.192972147905691
    vertex -0.2572996933359058 -0.4207357102509113 0.1998835176117012
    vertex -0.1353968145000178 -0.3462605441567161 0.1535007872215027
  endloop
endfacet
facet normal -0.25491 -0.108886 0.960815
  outer loop
    vertex -0.3933675400652835 -0.4850924983793538 0.1564905156944223
    vertex -0.2572996933359058 -0.4207357102509113 0.1998835176117012
    vertex -0.3376623423739087 -0.2935873576394041 0.192972147905691
  endloop
endfacet
facet normal 0.0158192 0.35487 -0.934782
  outer loop
    vertex -0.01536524559614506 -0.3950119302631123 -0.1704116825150528
    vertex -0.1751099436902494 -0.4657939044768282 -0.1999858598880486
    vertex -0.1832109884874251 -0.3059805862866501 -0.1394533089706303
  endloop
endfacet
facet normal 0.257697 0.353646 -0.899181
  outer loop
    vertex -0.1751099436902494 -0.4657939044768282 -0.1999858598880486
    vertex -0.3497260967546982 -0.3373234780645094 -0.1995021130545945
    vertex -0.1832109884874251 -0.3059805862866501 -0.1394533089706303
  endloop
endfacet
facet normal 0.0141601 0.306802 -0.951668
  outer loop
    vertex -0.04399463368317624 0.473960157572856 -0.198554493755368
    vertex -0.236939268632175 0.5255637525059093 -0.1847892222045926
    vertex -0.03774500318330307 0.6349757529654816 -0.1465527681245894
  endloop
endfacet
facet normal 0.137849 0.351147 0.926118
  outer loop
    vertex -0.1353968145000178 -0.3462605441567161 0.1535007872215027
    vertex -0.2572996933359058 -0.4207357102509113 0.1998835176117012
    vertex -0.08763289886331953 -0.4875040600780877 0.1999451852457893
  endloop
endfacet
facet normal 0.372532 -0.250031 -0.893702
  outer loop
    vertex 0.5867917189099151 -0.2771096377214463 -0.1334874816552407
    vertex 0.4311033492855583 -0.2722037949860314 -0.1997573940980002
    vertex 0.5435009283347757 -0.1375050103385335 -0.1905900199408755
  endloop
endfacet
facet normal 0.63756 -0.113947 -0.761927
  outer loop
    vertex 0.5435009283347757 -0.1375050103385335 -0.1905900199408755
    vertex 0.6716114826327296 -0.1012291432536033 -0.08881573700422339
    vertex 0.5867917189099151 -0.2771096377214463 -0.1334874816552407
  endloop
endfacet
facet normal 0.158136 -0.225476 -0.961329
  outer loop
    vertex 0.3033996746557074 -0.5507640795775531 -0.153003093871278
    vertex 0.145143422590225 -0.4635513724951925 -0.1994912143044713
    vertex 0.2883171720718431 -0.3708067679071242 -0.1976924891949742
  endloop
endfacet
facet normal 0.200472 -0.0435018 -0.978733
  outer loop
    vertex -0.01536524559614506 -0.3950119302631123 -0.1704116825150528
    vertex -0.03827574733664144 -0.6110954525236131 -0.1655001153727842
    vertex -0.1751099436902494 -0.4657939044768282 -0.1999858598880486
  endloop
endfacet
facet normal -0.179638 -0.00331375 -0.983727
  outer loop
    vertex -0.01536524559614506 -0.3950119302631123 -0.1704116825150528
    vertex 0.145143422590225 -0.4635513724951925 -0.1994912143044713
    vertex -0.03827574733664144 -0.6110954525236131 -0.1655001153727842
  endloop
endfacet
facet normal -0.148403 -0.3585 -0.921658
  outer loop
    vertex -0.03827574733664144 -0.6110954525236131 -0.1655001153727842
    vertex -0.2296842318467304 -0.6024006889802868 -0.1380621559327084
    vertex -0.1751099436902494 -0.4657939044768282 -0.1999858598880486
  endloop
endfacet
facet normal 0.0597367 0.296314 0.953221
  outer loop
    vertex -0.01553272203355448 0.6024488672653769 0.1716483852645062
    vertex 0.1548256199897752 0.4769158265654894 0.1999949754772999
    vertex 0.1372126576981894 0.6011679329050302 0.162474273204977
  endloop
endfacet
facet normal -0.0409306 -0.351894 0.935144
  outer loop
    vertex 0.1130021123902531 -0.6009860500991978 0.1660236031318628
    vertex -0.08763289886331953 -0.4875040600780877 0.1999451852457893
    vertex -0.04810883244344533 -0.6344696635379021 0.146372020002175
  endloop
endfacet
facet normal -0.265183 -0.219069 -0.938982
  outer loop
    vertex -0.5749729729716686 -0.2058459082506403 -0.1665633230553536
    vertex -0.3497260967546982 -0.3373234780645094 -0.1995021130545945
    vertex -0.5129493481644521 -0.3827787969000488 -0.1428005045886549
  endloop
endfacet
facet normal -0.294749 -0.00751503 0.955545
  outer loop
    vertex -0.4619387031029004 0.04528700617129726 0.1967613110246366
    vertex -0.4566359180892444 0.2244321713216609 0.1998059285637551
    vertex -0.5977198466393561 0.1833233471004632 0.155963696745837
  endloop
endfacet
facet normal -0.210817 0.285705 -0.934842
  outer loop
    vertex 0.2883171720718431 -0.3708067679071242 -0.1976924891949742
    vertex 0.2935685079753597 -0.2372627324634023 -0.1580631373118879
    vertex 0.4311033492855583 -0.2722037949860314 -0.1997573940980002
  endloop
endfacet
endsolid Created by Gmsh
